<svg version="1.1" id="Layer_1" xmlns="http://www.w3.org/2000/svg" xmlns:xlink="http://www.w3.org/1999/xlink" x="0px" y="0px"
	 width="100%" viewBox="0 0 832 848" enable-background="new 0 0 832 848" xml:space="preserve">
<path fill="#000000" opacity="1.000000" stroke="none" 
	d="
M199.000000,547.056641 
	C359.817230,547.990601 520.136108,547.642090 680.454468,547.597290 
	C685.744751,547.595764 689.683899,549.341675 693.083435,553.304382 
	C699.917297,561.270203 706.985840,569.034546 713.922058,576.913147 
	C714.987793,578.123657 716.481018,579.119507 716.503784,581.082947 
	C715.188904,582.896362 713.194824,582.281982 711.480591,582.282837 
	C633.149963,582.320129 554.819275,582.307983 476.488647,582.341187 
	C471.970703,582.343140 468.092163,580.972412 464.417725,578.350830 
	C450.942413,568.736694 436.233307,562.810913 419.314606,563.278198 
	C402.819946,563.733765 388.622345,570.222534 375.551178,579.604919 
	C372.258972,581.968079 368.993378,583.238281 364.978668,583.234253 
	C327.654388,583.196838 290.329651,582.819763 253.010147,582.702942 
	C215.692902,582.586121 178.361984,582.675781 141.038040,582.920410 
	C134.114883,582.965820 127.191147,582.926880 120.807137,582.926880 
	C119.576988,579.853943 120.895409,578.778687 121.720810,577.633118 
	C127.369972,569.792969 133.364029,562.183228 138.667068,554.118042 
	C142.237274,548.688171 146.903519,546.983948 153.002762,547.038452 
	C168.167358,547.174072 183.334106,547.066650 199.000000,547.056641 
z"/>
<path fill="#000000" opacity="1.000000" stroke="none" 
	d="
M363.000000,503.057678 
	C451.815948,503.002777 540.131897,502.945587 628.447876,502.882172 
	C636.605164,502.876312 644.126221,504.298859 648.602173,511.895264 
	C651.198792,511.713501 651.950623,509.780731 653.073853,508.475616 
	C656.646606,504.324127 661.312378,503.021240 666.490479,503.067963 
	C669.240723,503.092743 672.104736,503.710297 673.183472,506.561798 
	C677.404053,517.718445 681.409058,528.956665 685.760071,540.894043 
	C530.750916,540.894043 376.765076,540.894043 222.375916,540.894043 
	C222.207077,534.625061 224.243622,528.960266 225.131683,523.150391 
	C225.757965,519.053223 226.843002,515.027954 227.650681,510.956177 
	C228.923050,504.541870 230.780411,502.994385 237.524689,502.996277 
	C274.350952,503.006561 311.177216,503.028412 348.003479,503.046295 
	C352.835663,503.048645 357.667816,503.051239 363.000000,503.057678 
z"/>
<path fill="#000000" opacity="1.000000" stroke="none" 
	d="
M270.000000,464.833466 
	C282.787781,464.833466 295.075562,464.833466 307.828491,464.833466 
	C306.971558,471.977631 302.583191,477.253876 301.448273,483.513794 
	C310.717651,486.929688 315.245728,485.083893 318.677368,476.726440 
	C319.309967,475.185944 319.939148,473.643860 320.548187,472.093933 
	C323.281067,465.139099 326.734283,462.354523 334.152496,463.356201 
	C351.761047,465.733795 369.416473,464.425110 387.032288,464.560364 
	C433.184540,464.914703 479.341400,464.676208 525.496399,464.658630 
	C529.170532,464.657257 532.829407,464.591675 536.270447,466.214569 
	C537.528503,466.807922 538.895874,466.773804 540.182373,466.331055 
	C547.642944,463.763458 555.363708,464.927246 562.986694,464.673523 
	C567.181519,464.533936 569.819946,466.425812 571.400024,470.332184 
	C574.458923,477.894440 577.741638,485.366028 580.917114,492.881287 
	C583.272644,498.456390 582.864685,499.095917 576.703735,499.091522 
	C545.711731,499.069397 514.719788,498.985657 483.727783,498.986359 
	C401.582733,498.988251 319.437683,499.021576 237.292633,499.045288 
	C230.088074,499.047363 229.917938,498.900604 229.917877,491.891113 
	C229.917801,484.726288 230.040726,477.559479 229.906586,470.397369 
	C229.831390,466.383087 231.377945,464.735931 235.509216,464.796692 
	C246.837204,464.963318 258.169434,464.841248 270.000000,464.833466 
z"/>
<path fill="#000000" opacity="1.000000" stroke="none" 
	d="
M505.979736,410.322632 
	C460.190735,410.325531 414.899414,410.336090 369.608093,410.324036 
	C362.537567,410.322144 360.909119,408.851166 359.384094,402.102905 
	C358.841400,399.701508 358.623657,397.905823 361.532318,397.087860 
	C363.537811,396.523895 363.984741,394.805511 363.521698,393.078461 
	C362.202393,388.157715 364.065277,383.863708 366.081635,379.669342 
	C370.045441,371.423889 374.153137,363.246155 378.304565,355.092957 
	C380.655396,350.475952 387.945068,350.123077 389.942719,355.021393 
	C395.039520,367.519104 403.263367,378.969727 403.372559,393.248260 
	C403.398804,396.678833 405.729034,397.745819 408.758392,395.925995 
	C410.909821,394.633575 411.658936,392.375214 412.598694,390.242737 
	C416.678040,380.985748 420.776550,371.737274 425.118408,361.919769 
	C429.567200,364.951508 430.532440,369.741821 433.615601,372.888519 
	C435.474609,372.430908 435.315308,370.635193 435.972473,369.437622 
	C436.976959,367.607056 438.264954,365.687073 440.419617,365.902924 
	C446.624512,366.524567 447.308899,362.963135 446.766998,358.221619 
	C446.315674,354.272614 447.742310,352.550293 452.030396,352.588989 
	C468.513245,352.737701 484.999969,352.685364 501.482452,352.482269 
	C505.780426,352.429321 507.633911,353.812317 507.167114,358.243439 
	C506.650970,363.143463 508.095123,366.398193 514.012878,365.770874 
	C517.530090,365.398010 517.347717,368.154327 517.349243,370.537598 
	C517.356567,382.026886 517.223633,393.519043 517.454285,405.003906 
	C517.538269,409.184052 516.053894,410.789612 511.968811,410.355743 
	C510.157593,410.163361 508.309021,410.323029 505.979736,410.322632 
z"/>
<path fill="#000000" opacity="1.000000" stroke="none" 
	d="
M523.789368,437.336060 
	C526.190247,444.933624 528.443909,452.163116 530.628723,459.171539 
	C528.286316,460.790009 526.396912,460.300293 524.616333,460.301147 
	C473.668976,460.325104 422.721649,460.321472 371.774292,460.307037 
	C365.723969,460.305328 364.858002,459.456299 366.038666,453.667023 
	C368.334320,442.410095 367.800385,431.160309 366.157227,419.937622 
	C365.585663,416.033783 366.890076,414.840637 370.575134,414.844574 
	C417.693665,414.895142 464.812347,414.904053 511.930847,414.841095 
	C515.330811,414.836548 517.085388,416.207336 518.027771,419.388489 
	C519.774719,425.285217 521.757629,431.112061 523.789368,437.336060 
z"/>
<path fill="#000000" opacity="1.000000" stroke="none" 
	d="
M280.999939,663.359619 
	C229.435989,663.359253 178.372086,663.359253 127.561157,663.359253 
	C126.600075,660.464111 127.988464,658.995667 128.718994,657.393738 
	C131.563217,651.156555 134.114716,644.761780 134.573456,637.904785 
	C134.888748,633.191895 136.651932,631.719727 141.336884,631.738770 
	C186.645081,631.922668 231.954102,631.912109 277.262878,631.940308 
	C300.417358,631.954712 323.571838,631.926453 346.726318,631.936035 
	C353.365265,631.938721 353.984772,632.572693 353.024292,639.156250 
	C352.127563,645.302856 351.908325,651.413147 353.114197,657.528198 
	C353.947235,661.752563 352.595551,663.462402 347.964569,663.423218 
	C325.811096,663.235596 303.655060,663.351746 280.999939,663.359619 
z"/>
<path fill="#000000" opacity="1.000000" stroke="none" 
	d="
M308.999908,589.647827 
	C328.574890,589.647217 347.649841,589.647217 366.644653,589.647217 
	C367.144135,592.417419 365.677063,593.789734 364.873199,595.347473 
	C361.584869,601.719727 358.029846,608.057129 356.582642,615.092529 
	C355.658478,619.585144 353.533234,620.494324 349.418030,620.483459 
	C302.428802,620.359314 255.439133,620.380127 208.449600,620.377014 
	C186.787704,620.375610 165.125809,620.423706 143.463959,620.399292 
	C141.003418,620.396545 138.481232,620.775696 135.212265,619.516846 
	C137.328735,610.081909 136.998810,600.404419 134.977661,589.648376 
	C193.358688,589.648376 250.929276,589.648376 308.999908,589.647827 
z"/>
<path fill="#000000" opacity="1.000000" stroke="none" 
	d="
M691.992432,664.349121 
	C663.331177,664.367859 635.167786,664.318054 607.004883,664.419617 
	C570.695923,664.550476 534.387390,664.804932 498.078674,665.000427 
	C490.535583,665.041016 490.748749,665.050232 491.469269,657.693054 
	C492.085907,651.396851 492.518524,644.952759 491.341248,638.750061 
	C490.420715,633.900024 491.563843,632.617554 496.370331,632.642029 
	C530.198608,632.814758 564.027954,632.797424 597.856995,632.794800 
	C628.351746,632.792419 658.846436,632.724731 689.341187,632.700623 
	C698.115173,632.693726 698.335022,632.944580 700.496704,641.350159 
	C702.388123,648.704956 704.420471,656.023560 706.458801,663.612122 
	C701.420288,664.928528 696.921509,664.101929 691.992432,664.349121 
z"/>
<path fill="#000000" opacity="1.000000" stroke="none" 
	d="
M596.999878,620.365784 
	C562.347839,620.346802 528.195496,620.244751 494.044281,620.403137 
	C489.321381,620.425049 486.756104,619.448059 486.008148,614.284180 
	C484.780548,605.808594 480.705444,598.288147 476.007874,590.026489 
	C548.776245,590.026489 620.700745,590.026489 693.501160,590.026489 
	C692.179138,599.924500 691.989441,609.627075 693.897522,620.365234 
	C661.271729,620.365234 629.385803,620.365234 596.999878,620.365784 
z"/>
<path fill="#000000" opacity="1.000000" stroke="none" 
	d="
M278.888794,295.014069 
	C240.593521,309.302460 207.244064,331.076294 176.310562,356.807526 
	C139.830505,387.152466 109.342514,422.569336 86.029434,464.024689 
	C63.600361,503.908081 49.354729,546.647888 41.314144,591.571899 
	C37.474854,613.022583 34.858864,634.622864 33.177280,656.345398 
	C32.992935,658.726807 33.281506,661.612610 30.701035,662.978760 
	C26.880432,665.001526 23.657343,662.740662 23.708950,658.087463 
	C24.034550,628.728943 27.396486,599.709961 33.892197,571.080566 
	C46.972008,513.432251 71.641685,460.860901 105.756523,412.924805 
	C125.850830,384.689484 151.306702,361.214600 178.863022,340.179901 
	C227.835358,302.797760 282.904633,279.121277 343.357819,268.005432 
	C371.747833,262.785248 400.451782,260.851624 429.331177,262.689178 
	C430.870972,262.787140 432.948303,262.176971 433.266754,264.638397 
	C433.530975,266.681122 432.467499,268.161926 430.736084,269.135773 
	C428.280823,270.516724 425.566376,270.252502 422.911865,270.202698 
	C401.071808,269.792725 379.340271,270.891205 357.708557,274.159698 
	C330.790283,278.226990 304.582550,284.865967 278.888794,295.014069 
z"/>
<path fill="#000000" opacity="1.000000" stroke="none" 
	d="
M624.127563,319.902771 
	C593.994263,303.330200 562.432190,291.555054 529.284851,283.971497 
	C528.636230,283.823090 528.012390,283.541901 527.358765,283.444244 
	C524.712952,283.048920 523.613586,281.734619 524.182434,278.950928 
	C524.808777,275.886169 526.542786,275.442200 529.287048,276.024048 
	C553.782471,281.217682 577.849365,287.972687 600.533936,298.624695 
	C685.031616,338.302490 747.946655,399.855347 786.981934,484.976898 
	C802.040161,517.813232 811.941589,552.263916 816.514771,588.236938 
	C819.547913,612.096252 820.461548,635.963928 819.354980,659.953430 
	C819.232727,662.603699 818.812744,664.527771 815.493286,664.362610 
	C811.997498,664.188599 812.190369,661.936035 812.260132,659.450378 
	C813.549927,613.479126 808.097595,568.401367 792.874390,524.881287 
	C765.015808,445.239166 715.649719,381.852905 646.585693,333.677612 
	C639.495422,328.731812 631.835266,324.603180 624.127563,319.902771 
z"/>
<path fill="#000000" opacity="1.000000" stroke="none" 
	d="
M447.445251,298.137817 
	C447.576355,294.726074 447.842743,291.712494 447.602356,288.739899 
	C447.274231,284.681763 449.096161,283.599762 452.866852,283.629211 
	C469.347412,283.757935 485.830811,283.789124 502.310303,283.602386 
	C506.408081,283.555969 507.579895,285.201691 507.317444,288.929596 
	C506.856537,295.476318 506.771210,301.865234 512.193542,306.989594 
	C514.106079,308.797058 513.848328,311.706604 512.569275,314.039337 
	C507.844147,322.657013 506.663727,331.905945 507.136658,341.559265 
	C507.443817,347.828888 506.748840,348.346497 500.396606,348.334686 
	C484.414581,348.304932 468.431305,348.178253 452.451324,348.350037 
	C448.156555,348.396210 446.317841,347.099823 446.698608,342.647827 
	C447.562958,332.542023 446.562653,322.716522 441.752777,313.533386 
	C440.361847,310.877777 440.787994,308.389984 443.144623,306.340515 
	C445.514740,304.279327 446.557739,301.477936 447.445251,298.137817 
z"/>
<path fill="#000000" opacity="1.000000" stroke="none" 
	d="
M474.646606,205.722260 
	C475.543457,204.098343 476.068878,202.635254 477.600586,201.977829 
	C479.728180,202.098145 480.151031,203.937531 480.839752,205.353119 
	C491.622131,227.513977 502.398621,249.677948 513.084290,271.885559 
	C515.675293,277.270294 514.413391,278.966797 508.483154,279.474030 
	C495.491455,280.585297 482.517487,279.209564 469.536621,279.417877 
	C462.380463,279.532684 455.218536,280.032043 448.072632,279.844940 
	C439.879791,279.630463 438.826782,277.818451 442.450500,270.464569 
	C453.048553,248.956894 463.801453,227.525513 474.646606,205.722260 
z"/>
<path fill="#000000" opacity="1.000000" stroke="none" 
	d="
M238.567062,444.614594 
	C243.343643,436.576355 247.903610,428.833862 252.541611,421.138336 
	C257.267212,413.297546 272.152252,411.503296 276.864563,419.239319 
	C284.589874,431.921722 290.723114,445.573914 298.017426,459.770020 
	C274.888916,459.770020 252.949570,459.770020 229.830963,459.770020 
	C232.873886,454.491119 235.629288,449.711029 238.567062,444.614594 
z"/>
<path fill="#000000" opacity="1.000000" stroke="none" 
	d="
M558.331604,414.257172 
	C562.661804,414.428101 565.266479,416.408203 566.938904,419.860809 
	C569.186218,424.500244 571.507935,429.103607 573.786743,433.727844 
	C575.654968,437.519012 575.630432,441.120453 572.545898,444.311981 
	C569.767822,447.186462 570.088928,450.811737 570.406006,454.227753 
	C570.860718,459.126892 568.926575,460.673828 564.168823,460.388123 
	C558.363281,460.039520 552.517883,460.202850 546.695068,460.352722 
	C543.175476,460.443298 541.401855,459.279877 541.624390,455.486481 
	C541.912476,450.574402 541.122681,445.943207 537.874695,441.887787 
	C536.075806,439.641815 536.366333,436.877777 537.346375,434.259857 
	C538.687195,430.678284 539.990479,427.080292 541.434692,423.540283 
	C545.197693,414.316772 548.013000,412.743469 558.331604,414.257172 
z"/>
<path fill="#000000" opacity="1.000000" stroke="none" 
	d="
M625.526978,464.981140 
	C626.958984,465.650208 628.089050,466.158295 628.504578,467.338959 
	C632.072998,477.478119 635.604797,487.630157 638.997742,497.349274 
	C637.409973,499.470734 635.809021,499.149597 634.371277,499.152252 
	C621.553894,499.175934 608.735535,499.066467 595.919495,499.197205 
	C591.614929,499.241089 590.668762,497.739624 592.116272,493.780762 
	C594.970337,485.974915 597.683289,478.111694 600.208984,470.193848 
	C601.588135,465.870331 604.411377,464.104553 608.721924,463.973267 
	C614.223450,463.805786 619.705322,463.809998 625.526978,464.981140 
z"/>
<path fill="#000000" opacity="1.000000" stroke="none" 
	d="
M175.549713,503.632416 
	C180.674164,502.786896 183.386002,504.988159 185.202225,509.208557 
	C189.008224,518.052734 193.062759,526.789734 196.983902,535.584717 
	C197.508423,536.761230 198.337723,537.927429 197.501022,539.856567 
	C181.965210,539.856567 166.224197,539.856567 150.531296,539.856567 
	C149.863998,537.059387 151.128159,535.220459 152.130081,533.353149 
	C156.369873,525.451477 160.823914,517.659363 164.861588,509.656677 
	C167.094986,505.230042 170.186081,503.039764 175.549713,503.632416 
z"/>
<path fill="#000000" opacity="1.000000" stroke="none" 
	d="
M326.924347,453.982178 
	C330.656708,442.829926 334.274414,432.043365 337.892120,421.256775 
	C338.483429,421.227997 339.074738,421.199219 339.666046,421.170441 
	C344.412292,433.639069 347.843079,446.548035 352.088684,459.995453 
	C342.880646,460.389343 334.435028,460.875183 326.245422,460.216492 
	C325.090637,457.654419 326.537079,456.094177 326.924347,453.982178 
z"/>
<path fill="#000000" opacity="1.000000" stroke="none" 
	d="
M611.629639,440.722412 
	C613.019226,437.568451 613.379028,434.288483 616.812073,431.362854 
	C620.830994,440.645355 623.243042,449.882935 626.517639,459.582642 
	C618.944031,460.846405 612.009399,460.270569 603.826538,460.081940 
	C606.610962,453.214142 609.068176,447.153473 611.629639,440.722412 
z"/>
<path fill="#000000" opacity="1.000000" stroke="none" 
	d="
M557.892578,397.238403 
	C559.582092,401.405212 561.112366,405.227814 562.821472,409.497162 
	C557.380859,411.981079 552.407837,410.112335 546.742065,410.056183 
	C548.212341,402.768921 551.088745,396.658783 553.746826,389.850586 
	C556.283569,392.199951 556.691650,394.726257 557.892578,397.238403 
z"/>
<path fill="#000000" opacity="1.000000" stroke="none" 
	d="
M616.479858,408.955139 
	C616.461426,411.444031 616.461426,413.566620 616.461426,416.331055 
	C608.052856,414.908051 600.191467,413.931641 592.459412,411.651215 
	C593.137939,408.710236 595.234619,408.898865 596.855408,408.445862 
	C601.791199,407.066315 606.805603,405.939941 611.677612,404.368408 
	C616.000793,402.973877 617.207581,404.536591 616.479858,408.955139 
z"/>
<path fill="#000000" opacity="1.000000" stroke="none" 
	d="
M249.742706,380.440918 
	C247.027023,380.200439 244.809158,379.756989 241.652039,377.992157 
	C250.186264,374.176392 258.336670,372.991974 266.092194,370.678223 
	C267.910950,373.964020 267.083191,376.834198 267.253876,379.591583 
	C267.455841,382.854187 265.661987,383.618866 262.833801,383.047119 
	C258.608917,382.193054 254.381943,381.349182 249.742706,380.440918 
z"/>
<path fill="#000000" opacity="1.000000" stroke="none" 
	d="
M539.991882,375.252014 
	C536.632935,373.974731 532.901611,375.071594 529.754944,371.670532 
	C537.687866,368.382751 545.476868,366.803467 553.371277,364.831818 
	C555.002502,368.318024 554.266785,371.640350 554.200073,374.856659 
	C554.144226,377.548065 552.027222,377.431824 550.185974,377.138916 
	C546.914307,376.618530 543.670898,375.920624 539.991882,375.252014 
z"/>
<path fill="#000000" opacity="1.000000" stroke="none" 
	d="
M170.330338,472.047119 
	C163.708099,470.434448 157.213242,470.203918 149.759155,467.391205 
	C158.395615,463.295013 166.349899,461.941711 174.115036,460.029602 
	C176.802139,467.819489 175.600082,471.806305 170.330338,472.047119 
z"/>
<path fill="#000000" opacity="1.000000" stroke="none" 
	d="
M470.531006,178.416214 
	C472.991760,177.825699 474.953033,176.676453 477.387756,177.306198 
	C478.907288,180.425461 478.138489,183.762207 478.084198,187.014282 
	C478.061920,188.348694 477.125488,189.364227 475.810089,189.122635 
	C468.695190,187.815857 461.425171,187.184784 454.371643,184.174652 
	C459.151306,180.825043 464.769165,180.006607 470.531006,178.416214 
z"/>
<path fill="#000000" opacity="1.000000" stroke="none" 
	d="
M379.173737,323.990234 
	C372.450653,322.319244 365.812622,322.071289 359.600067,319.108521 
	C366.731232,315.179779 374.629028,314.150757 382.351196,311.852966 
	C384.160919,315.474762 383.245819,318.980194 383.323334,322.319855 
	C383.382904,324.887573 381.156860,324.145813 379.173737,323.990234 
z"/>
<path fill="#000000" opacity="1.000000" stroke="none" 
	d="
M261.653931,409.858093 
	C259.908112,409.162750 259.610962,408.083710 260.195709,406.901825 
	C262.008392,403.238251 263.421600,399.319794 266.718994,396.003906 
	C269.630676,400.102386 271.450989,404.377106 273.258759,409.030060 
	C269.239685,410.716797 265.629517,410.092621 261.653931,409.858093 
z"/>
<path fill="#000000" opacity="1.000000" stroke="none" 
	d="
M665.062378,484.699493 
	C668.129028,488.480927 669.010864,493.011627 670.685547,497.397156 
	C667.065918,500.047363 663.633545,498.722137 659.638123,498.014740 
	C660.537415,493.072052 662.240479,488.770844 665.062378,484.699493 
z"/>
<path fill="#000000" opacity="1.000000" stroke="none" 
	d="
M175.337616,487.087158 
	C178.521439,489.523804 178.898621,493.026947 179.782562,496.564606 
	C176.467514,497.587280 173.674835,497.646362 170.661331,496.486877 
	C171.069916,492.741394 173.207596,490.039337 175.337616,487.087158 
z"/>
</svg>